<svg id="Layer_1" data-name="Layer 1" xmlns="http://www.w3.org/2000/svg" viewBox="0 0 67.63 67.64"><defs><style>.cls-1{fill:#fff;}.cls-2{fill:#2e3192;}.cls-3{fill:#00aeef;}</style></defs><rect class="cls-1" x="3.62" y="3.62" width="61.09" height="61.09"/><path class="cls-2" d="M81.1,81l-30,1.58-15.54.66c-5.21.22-10.47.33-15.73.47l-2.77.08L17,80.89c-.14-5.09-.26-10.18-.32-15.28l-.24-15.27c-.08-5.09-.07-10.18-.11-15.27l-.07-15.28,0-3.61,3.61,0,15.28.07c5.09,0,10.18,0,15.27.11l15.28.24c5.09.06,10.18.19,15.27.33l2.92.08-.08,2.76c-.14,5.26-.25,10.52-.47,15.73l-.66,15.53Zm-.28-.28-.16-61,.3.3-61.1.1.4-.4-.09,61.1-.31-.3Z" transform="translate(-16.25 -16.18)"/><path class="cls-2" d="M25.69,28.7H48.74A.3.3,0,0,1,49,29v7.17a.29.29,0,0,1-.3.3H27.31a.29.29,0,0,1-.3-.23L25.4,29.08A.3.3,0,0,1,25.69,28.7Z" transform="translate(-16.25 -16.18)"/><path class="cls-2" d="M27.32,48.55H48.61a.3.3,0,0,1,.31.3V56a.31.31,0,0,1-.31.31H26.13a.31.31,0,0,1-.3-.36L27,48.8A.29.29,0,0,1,27.32,48.55Z" transform="translate(-16.25 -16.18)"/><rect class="cls-2" x="10.81" y="22.45" width="21.86" height="7.78" rx="0.3"/><path class="cls-3" d="M74.4,56.29H51a.61.61,0,0,1-.61-.61V48.8a.59.59,0,0,1,.19-.43L61.92,37.53a.61.61,0,0,0-.42-1.05H51a.6.6,0,0,1-.61-.6V29.53a.6.6,0,0,1,.61-.6H74.4a.6.6,0,0,1,.61.6v6.22a.6.6,0,0,1-.18.43L63.47,47.51a.61.61,0,0,0,.43,1H74.4a.6.6,0,0,1,.61.6v6.53A.61.61,0,0,1,74.4,56.29Z" transform="translate(-16.25 -16.18)"/><path class="cls-3" d="M30.41,61h.44A8.22,8.22,0,0,1,35,62.25c0,.07-.41.89-1.24,2.47l-1.29-.4A5.86,5.86,0,0,0,30.91,64h-.24a.62.62,0,0,0-.68.53c0,.23.51.46,1.51.7a7.09,7.09,0,0,1,2.85,1.33,2.89,2.89,0,0,1,.88,2.22q0,2.85-3.1,3.56a9.14,9.14,0,0,1-1.12.09h-.28a8.25,8.25,0,0,1-4.9-1.6v0c.89-1.53,1.35-2.29,1.39-2.3h0a6.34,6.34,0,0,0,3.21.92h.24c.56,0,.84-.14.84-.41s-.66-.71-2-1a4.63,4.63,0,0,1-2.86-1.79,3.44,3.44,0,0,1-.39-1.6c0-1.85,1-3,3.11-3.56A6.69,6.69,0,0,1,30.41,61Z" transform="translate(-16.25 -16.18)"/><path class="cls-3" d="M36.26,61.5V57.7H40v3.8h2.83v2.89H40V67.2a2.35,2.35,0,0,0,.42,1.33c.21.33,1,.53,2.41.6V72H41.33a7.56,7.56,0,0,1-2.65-.49c-1.61-.85-2.42-2.55-2.42-5.08v-2h-1V61.5Z" transform="translate(-16.25 -16.18)"/><path class="cls-3" d="M48.48,60.94a5.53,5.53,0,0,1,4.8,2.79A5.89,5.89,0,0,1,54,66.4V67A5.63,5.63,0,0,1,52.15,71a5.55,5.55,0,0,1-3.78,1.44,5.42,5.42,0,0,1-4.76-2.71,5.76,5.76,0,0,1-.8-3v-.17a5.67,5.67,0,0,1,2.8-5A5.84,5.84,0,0,1,48.48,60.94Zm-1.63,5.54V67c0,1.25.37,2,1.1,2.14l.53,0a1.22,1.22,0,0,0,1.29-.87A5.56,5.56,0,0,0,50,66.68c0-1.64-.51-2.46-1.55-2.46h-.11a1.24,1.24,0,0,0-1.25.91A3.82,3.82,0,0,0,46.85,66.48Z" transform="translate(-16.25 -16.18)"/><path class="cls-3" d="M59.69,61h.45a5,5,0,0,1,4.32,2.39c-.07.11-.93.75-2.57,1.95a2.33,2.33,0,0,0-2-1.13c-1,0-1.64.6-2,1.79l0,.48v.37A2.29,2.29,0,0,0,59.3,69a1.79,1.79,0,0,0,.48.07h.32A2.73,2.73,0,0,0,62,68q2.35,1.69,2.52,1.86a5.83,5.83,0,0,1-2.88,2.23,8.9,8.9,0,0,1-1.93.24,5.52,5.52,0,0,1-5-3,5.89,5.89,0,0,1-.61-2.56v-.16A5.57,5.57,0,0,1,59.69,61Z" transform="translate(-16.25 -16.18)"/><path class="cls-3" d="M68.85,64.93l2.08-3.43H75l-3.16,5.23L75,72H70.93l-2.08-3.43V72H65.07V57.6h3.78Z" transform="translate(-16.25 -16.18)"/></svg>